<svg version="1.2" xmlns="http://www.w3.org/2000/svg" viewBox="0 0 1544 488" width="1544" height="488">
	<title>蚂蚁集团标志（RGB）-ai-svg</title>
	<style>
		.s0 { fill: #ffffff } 
	</style>
	<g id="内容">
		<g id="&lt;Group&gt;">
			<g id="&lt;Group&gt;">
				<path id="&lt;Path&gt;" class="s0" d="m315.8 196.8c-20.5-20.7-46.3-32.1-72.5-32.1q-1.4 0-2.8 0.2c-23.9 0.7-45.7 10.9-61.9 28.9-19 21.2-28.1 51.6-24.9 83.3 3 29.8 16.4 57.6 37.4 78.1 21 20.5 47.4 31.3 74 30.5 23.7-0.8 45.6-10.9 61.8-28.9 18.7-21.2 28-51.1 25.1-82.5-2.8-29.2-15.7-56.7-36.2-77.5z"/>
				<path id="&lt;Compound Path&gt;" fill-rule="evenodd" class="s0" d="m372.9 303.3c-0.7 95.4-75.1 175.7-170.4 183.7-106.6 9.1-198.2-72.3-202.3-178-1.4-37.9 8.8-75.9 29.5-107.8 10.5-16.4 23.8-31.1 39-43.4q3.4-2.9 6.9-5.6c-4.3-8.7-8.2-17.6-11.9-26.5-6.1-14.3-11.1-28.9-13.6-44.2q-0.7-4.1-1-8.2-0.4-3.9-0.6-7.7c-0.1-6 0.4-13.1 2.5-19.4 1.8-5.1 4.5-9.8 8.4-13 7.9-6.4 19.3-5.2 25.7 2.5 15.3 18.2 3.7 46 3 67-0.4 12.5 2.5 25.1 6.8 37.1 9.2-5.2 18.9-9.3 26.9-16.4 6.2-5.4 9.2-16.4 17.3-19.1 7.1-2.5 14.8 3.4 20.6 6.8 6.3 3.5 12.9 4.4 19.5 4.6 5.1 0.2 10.3 0 15.5 0.2q6.6 0.3 13.3 1.2c3.2-17.6 6.1-35.1 10.2-52.4 3.6-15.5 8.7-30.6 18-43.6 6.8-9.3 16.6-17.1 27.8-20 19.2-4.8 27.2 13.9 20.5 30-5.5 13.3-19.3 20.3-29.2 29.9-15.6 14.8-22 38.3-26.8 59.5 20 4.7 39 12.5 56.5 23.4 26.6 16.5 48.8 39.7 64.2 67 15.8 28.1 23.8 60.2 23.7 92.4zm-13.6-25.4c-6-69.5-61.5-125.8-123.8-125.8-62.2 0.1-107.7 56.3-101.8 125.4 6.1 69.1 61.1 125.6 123.3 125.8 62.4 0.4 108.4-55.8 102.3-125.4z"/>
			</g>
			<g id="&lt;Group&gt;">
				<g id="&lt;Group&gt;">
					<path id="&lt;Compound Path&gt;" fill-rule="evenodd" class="s0" d="m1027.8 238.3v44.7h-19.8v-44.7h-9.7c-6.9 11.6-25.8 34.6-68.2 42.8l-3.4-18.6c25-4.8 39.8-15.5 48.1-24.2h-48.8v-18.5h82v-9.5h-51.7c-12.7 0-18.5-6-18.5-18.7v-38.5q-4.5 4.3-9.5 8.4l-12.6-15.1c32.4-27.1 48.8-56.9 49-57.2l17.3 9.4c-0.2 0.7-3.8 6.8-10.2 16h21.7c13.8 0 21.6-2.6 30.7-15.1 4.8-7 6.4-10.2 6.4-10.3l17.3 9.4c-0.2 0.4-1.3 2.3-3.4 5.9-2.7 3.9-6.2 7.3-10.5 10.1h69.7v17.5h-72.4v8.9h67.4v17.1h-67.4v9.3h67.4v17.1h-67.4v8.4h72.4v17.4h-75.9v9.5h82.1v18.5h-48.8c8.2 8.7 23 19.4 48.1 24.2l-3.6 18.6c-42.4-8.2-61.1-31.2-68-42.8zm-70.8-70.9h54.5v-9.3h-54.5zm0.9-35.3q-0.5 0.6-0.9 1.1v7.8h54.5v-8.9zm2.7 60.6h51v-8.2h-54.7v4.7c0 3.2 0.5 3.5 3.7 3.5z"/>
					<path id="&lt;Path&gt;" class="s0" d="m671.7 251.8c4.3-11.4 4.8-36.8 4.8-60.7v-8.6h-26.4l5.4-81h-86.1v18.3h65.1l-4.1 62.7h-33.7l3.7-52.7h-18.9l-5.1 71.1h80.3c-0.1 23.7-1.4 37.6-3.5 43.3-2.9 8-8 16.9-27.8 16.9h-30.9v18.9h31.8c24 0 38.5-8.9 45.4-28.2z"/>
					<path id="&lt;Compound Path&gt;" fill-rule="evenodd" class="s0" d="m551.2 280h-70.2v-20.7h31v-32.9h-30.6v-105.9h30.6v-26.4h19.8v26.4h31.6v83.2c0 13.8-8.9 22.7-22.5 22.7h-9.1v32.9h15.7v-19.2h19.8v-19.4h68.2v19.7h-68.2v23.6c0 9.9-6.1 16-16.1 16zm-19.4-140.2v67.1h9.1c1.4 0 2.7-1.2 2.7-2.6v-64.5zm-30.7 67.1h10.9v-67.1h-10.9z"/>
					<path id="&lt;Compound Path&gt;" fill-rule="evenodd" class="s0" d="m1290.4 283h-143.3v-183.9h178.8v148.6c0 23-12.5 35.3-35.5 35.3zm15.7-164.1h-139.4v144.3h123.7c9.8 0 15.7-5.7 15.7-15.5z"/>
					<path id="&lt;Path&gt;" class="s0" d="m1178 216.2l6.7 18.5c28.9-10.7 57.1-31.7 73.1-53.8v37.4c0 7.7-6.8 13.9-15 13.9h-17.6v18.9h19.4c19.1 0 33-13.3 33-31.9v-49.1h14.2v-18.9h-14.2v-20.2h-19.8v20.2h-76.4v18.9h61.1c-14.3 18.5-40.1 37-64.5 46.1z"/>
					<path id="&lt;Compound Path&gt;" fill-rule="evenodd" class="s0" d="m889.5 284.3c-17.9-15-33.5-29.3-46.9-44-13.4 14.7-29 29-46.7 44l-9.1-10.9c-2.6 4.3-7.5 6.6-13.7 6.6h-70.2v-20.7h31v-32.9h-30.7v-105.9h30.7v-26.4h19.8v26.4h31.5v83.2c0 13.8-8.9 22.7-22.4 22.7h-9.1v32.9h15.7v-19.2h19.7v22.8c15.4-13.2 28.7-25.7 40.3-38.9-6.8-8.9-12.8-18.1-18-28.1-13.3-26-14.4-54.9-14.4-80h20.7c0 23.7 0.8 48.6 12.1 70.5 3.7 7.4 8.2 14.1 12.8 20.9 4.8-6.8 9.1-13.5 12.8-20.9 11.3-21.9 12.3-46.8 12.3-70.5h20.5c0 26.2-1 54-14.4 80-5.2 10-11.1 19.2-17.8 28.1 13 15 28.7 29.3 46.7 44.4zm-135.7-144.5v67.4h9c1.6 0 2.8-1.3 2.8-2.9v-64.5zm-30.6 67.4h10.8v-67.4h-10.8z"/>
					<path id="&lt;Path&gt;" class="s0" d="m835.7 152.4l16.2-2.1c-0.2-28.7-4.1-56.3-4.3-57.6l-19.6 2.9c0 0 0.2 0.9 0.3 2.1 1.3 6.1 5.7 29.8 7.4 54.7z"/>
				</g>
				<g id="&lt;Group&gt;">
					<path id="&lt;Compound Path&gt;" fill-rule="evenodd" class="s0" d="m1543.1 366.4c0 26.4-17.6 43.3-44 43.3h-35.1v41c0 0-4.6 1.1-11.1 1.1-6.6 0-11.2-1.1-11.2-1.1v-126.7h56.7c27.2 0 44.7 16 44.7 42.4zm-21.2 0.5c0-16.9-8.2-23.1-27.3-23.1h-30.6v46.1h30.6c17.1 0 27.3-6 27.3-23z"/>
					<path id="&lt;Compound Path&gt;" fill-rule="evenodd" class="s0" d="m1131.3 421.5c5.7 7.3 19.1 28.7 19.1 28.7 0 0-5.2 1.7-12.7 1.7-7.7 0-13-1-13-1 0-0.2-9.1-17.1-12.7-22.7-6-9.6-10.8-15.6-16.7-20.3-5.4-4.1-13-5.3-23.2-5.3h-14.2v48.3c0 0-4.7 1-11.1 1-6.6 0-11-1-11-1v-127.1h54.7c29.9 0 50.6 8 50.6 38 0 16.9-10.3 29.9-27.5 34.9-5.7 1.6-8.7 1.1-8.9 2.1-0.1 1.5 5.7 2.4 12.3 7.7 5.6 4.3 10 9.4 14.3 15zm-12.3-59.7c0-15.7-8.9-19.4-28.2-19.4h-32.9v41.3h29c19.3 0 32.1-5.4 32.1-21.9z"/>
					<path id="&lt;Path&gt;" class="s0" d="m1393.6 324h0.2v75.2c0 20.5-12.1 33.5-32.1 33.5-20 0-32.1-13-32.1-33.5v-75.2c0-0.2-4.4-1.2-11-1.2-6.6 0-11.3 1-11.3 1.2h0.2v76.1c0 37 23.7 53.3 54.2 53.3 30.5 0 54.4-16.3 54.4-53.3v-76.1c0-0.2-4.7-1.2-11.3-1.2-6.4 0-11 1-11.2 1.2z"/>
					<path id="&lt;Path&gt;" class="s0" d="m952 341.8c18 0 31.4 6.6 42.4 21.9l16.4-12.1c-14.6-20.3-30.6-30.1-60.6-30.1-36.3 0-64.5 28.2-64.5 66.3 0 38.1 26.9 65.6 60.4 65.6 9.5 0 18-2 25.3-5 6.5-2.7 10.2-4.8 14.5-7.7 1.8-1.2 3.9-2.5 5.1-2.1 1.1 0.5 1.3 1.6 1.3 3 0 4.1 0 8.9 0 8.9 0 0 3.6 1.1 8.4 1.1 5 0 8.5-1.4 8.5-1.4v-67.8h-57v17 1.2h37.4c0 13.6-12.3 32.5-40.4 32.5-26.4 0-41.9-21.1-41.9-45.3 0-27.6 21.7-46 44.7-46z"/>
					<path id="&lt;Compound Path&gt;" fill-rule="evenodd" class="s0" d="m1222.7 453.4c-36.5 0-65.9-29.5-65.9-66 0-36.4 29.4-65.9 65.9-65.9 36.5 0 65.9 29.5 65.9 65.9 0 36.5-29.4 66-65.9 66zm43.8-65.9c0-24.3-19.6-43.9-43.9-43.9-24.3 0-43.9 19.6-43.9 43.9 0 24.3 19.6 43.9 43.9 43.9 24.3 0 43.9-19.6 43.9-43.9z"/>
					<path id="&lt;Path&gt;" class="s0" d="m733.5 344.1h46.2v106.6c0 0 4.8 1.1 11.8 1.1 6.9 0 11.7-1.1 11.7-1.1v-106.6h46.2v-20.5h-115.9z"/>
					<path id="&lt;Path&gt;" class="s0" d="m692.9 323.6v92.2c-21.7-35.1-43.6-67-64.9-92.2 0 0-4.4-1.2-10.8-1.2-6.4 0-10.9 1.2-11.1 1.2v127.1c0.2 0 4.7 1.1 10.9 1.1 6.4 0 10.9-1.1 10.9-1.1v-98.5c23.3 32 45.1 65 64.7 98.5h0.1c0 0 4.5 1.1 10.9 1.1 6.4 0 11.1-1.1 11.1-1.1v-127.1c0 0-4.5-1.2-10.9-1.2-6.3 0-10.7 1.2-10.9 1.2z"/>
					<path id="&lt;Compound Path&gt;" fill-rule="evenodd" class="s0" d="m590.1 450.7c-0.7 0.2-5.2 1.1-11.1 1.1-6.7 0-10.6-0.9-11.4-1.1 0 0-0.1-0.2-0.1-0.4l-3.1-10.7-3.2-10.6-1.2-4c-0.9-2.1-2.3-2.8-5.2-4.1-3.9-1.7-12.8-4.2-27.4-6-11.8-1.4-29.4 1-29.4 1l-4.5 13.2-6.4 21.4q0 0 0 0.2c0 0-4.8 1.1-11.4 1.1-6.3 0-10.9-0.9-11.2-1.1l0.1-0.9q0.9-2.9 1.6-5.5l3.4-10.9 1.8-5.3 1.8-5.6 3.6-10.7q1.7-5.3 3.7-10.6l2-5.6q0.8-2.6 1.9-5.3l3.9-10.5c5.6-14.3 11.3-28.4 17.5-42.1 1.6-3.5 3-6.9 4.6-10.5l2-3.9h29.9l1.8 3.7q2.5 5.2 4.8 10.5c6.3 13.8 12.1 27.8 17.7 42.1l3.9 10.7q1.1 2.7 1.9 5.3l2 5.4q1.8 5.3 3.6 10.7l3.5 10.8 1.8 5.4 1.8 5.5 3.2 10.9q0.4 1.4 0.9 2.6l0.7 2.9zm-38.3-50.1q-0.5-1.6-1.2-3.2l-3.8-10.5q-7.7-20.8-16.6-41.1-0.5-1.3-1-2.5c-0.6-1.1-1.3-1.5-1.8-1.5-0.7 0-1.4 0.4-2 1.8q-0.5 1.1-1 2.3c-5.9 13.6-11.3 27.3-16.6 41.2l-3.8 10.5c-0.3 1.1-1 3.7-1.4 4.8 6.4-2.1 15.3-3.4 24.8-3.7 10-0.4 18 1 24.4 1.9z"/>
				</g>
			</g>
		</g>
	</g>
</svg>